HIERARCHY
ROOT Hips
{
	OFFSET 0.000000 0.000000 0.000000
	CHANNELS 6 Xposition Yposition Zposition Zrotation Yrotation Xrotation 
	JOINT LeftUpLeg_virtual
	{
		OFFSET 0.000000 0.000000 0.000000
		CHANNELS 3 Zrotation Yrotation Xrotation
		JOINT LeftUpLeg
		{
			OFFSET 8.479694 -4.795517 -0.379053
			CHANNELS 3 Zrotation Yrotation Xrotation
			JOINT LeftLeg
			{
				OFFSET 0.485052 -32.551468 0.112863
				CHANNELS 3 Zrotation Yrotation Xrotation
				JOINT LeftFoot
				{
					OFFSET 0.438033 -32.635670 -3.012641
					CHANNELS 3 Zrotation Yrotation Xrotation
					JOINT LeftToeBase
					{
						OFFSET 0.970169 -13.225353 11.864223
						CHANNELS 3 Zrotation Yrotation Xrotation
						End Site
						{
							OFFSET 0.000000 0.000000 0.000000
						}
					}
				}
			}
		}
	}
	JOINT RightUpLeg_virtual
	{
		OFFSET 0.000000 0.000000 0.000000
		CHANNELS 3 Zrotation Yrotation Xrotation
		JOINT RightUpLeg
		{
			OFFSET -8.479694 -4.795517 -0.379053
			CHANNELS 3 Zrotation Yrotation Xrotation
			JOINT RightLeg
			{
				OFFSET -0.484100 -32.551483 0.112903
				CHANNELS 3 Zrotation Yrotation Xrotation
				JOINT RightFoot
				{
					OFFSET -0.438985 -32.635651 -3.012681
					CHANNELS 3 Zrotation Yrotation Xrotation
					JOINT RightToeBase
					{
						OFFSET -0.970169 -13.225354 11.864223
						CHANNELS 3 Zrotation Yrotation Xrotation
						End Site
						{
							OFFSET 0.000000 0.000000 0.000000
						}
					}
				}
			}
		}
	}
	JOINT Spine_virtual
	{
		OFFSET 0.000000 0.000000 0.000000
		CHANNELS 3 Zrotation Yrotation Xrotation
		JOINT Spine
		{
			OFFSET 0.000000 7.722015 1.166203
			CHANNELS 3 Zrotation Yrotation Xrotation
			JOINT Spine1
			{
				OFFSET 0.000000 12.024086 0.248766
				CHANNELS 3 Zrotation Yrotation Xrotation
				JOINT Spine2
				{
					OFFSET -0.000000 11.503036 -0.491240
					CHANNELS 3 Zrotation Yrotation Xrotation
					JOINT Neck_virtual
					{
						OFFSET 0.000000 0.000000 0.000000
						CHANNELS 3 Zrotation Yrotation Xrotation
						JOINT Neck
						{
							OFFSET 0.000000 18.430687 -3.123054
							CHANNELS 3 Zrotation Yrotation Xrotation
							JOINT Head
							{
								OFFSET -0.000000 9.051071 1.034021
								CHANNELS 3 Zrotation Yrotation Xrotation
								End Site
								{
									OFFSET 0.000000 0.000000 0.000000
								}
							}
						}
					}
					JOINT LeftShoulder_virtual
					{
						OFFSET 0.000000 0.000000 0.000000
						CHANNELS 3 Zrotation Yrotation Xrotation
						JOINT LeftShoulder
						{
							OFFSET 6.197824 13.665230 -4.064723
							CHANNELS 3 Zrotation Yrotation Xrotation
							JOINT LeftArm
							{
								OFFSET 7.778132 -0.187073 -1.709282
								CHANNELS 3 Zrotation Yrotation Xrotation
								JOINT LeftForeArm
								{
									OFFSET 21.954697 0.000000 -2.041093
									CHANNELS 3 Zrotation Yrotation Xrotation
									JOINT LeftHand
									{
										OFFSET 22.992908 0.000000 -0.870901
										CHANNELS 3 Zrotation Yrotation Xrotation
										End Site
										{
											OFFSET 0.000000 0.000000 0.000000
										}
									}
								}
							}
						}
					}
					JOINT RightShoulder_virtual
					{
						OFFSET 0.000000 0.000000 0.000000
						CHANNELS 3 Zrotation Yrotation Xrotation
						JOINT RightShoulder
						{
							OFFSET -6.197824 13.665230 -4.064723
							CHANNELS 3 Zrotation Yrotation Xrotation
							JOINT RightArm
							{
								OFFSET -7.778132 -0.187073 -1.709282
								CHANNELS 3 Zrotation Yrotation Xrotation
								JOINT RightForeArm
								{
									OFFSET -21.954697 0.000000 -2.041093
									CHANNELS 3 Zrotation Yrotation Xrotation
									JOINT RightHand
									{
										OFFSET -22.992908 0.000000 -0.870901
										CHANNELS 3 Zrotation Yrotation Xrotation
										End Site
										{
											OFFSET 0.000000 0.000000 0.000000
										}
									}
								}
							}
						}
					}
				}
			}
		}
	}
}
MOTION
Frames: 11
Frame Time: 0.033333
54.412106 77.952118 -62.964188 -178.589462 -83.525584 178.550775 -1.483925 -9.020626 9.888049 4.751596 1.018722 -46.200141 7.153693 6.490647 35.861591 -3.564034 -7.293657 -1.812001 0.000000 0.000000 0.000000 2.248989 -11.537072 9.315241 3.900998 -3.586292 -28.201216 -1.520152 2.132685 35.285727 3.715894 5.830637 -11.667452 0.000000 0.000000 0.000000 3.320294 -6.400829 -1.585075 -1.451081 5.802708 -5.523447 -0.075440 -0.410506 7.764662 -0.028676 0.018789 -0.015101 -0.372514 1.015015 7.878590 -5.365056 -0.347085 6.409537 0.000000 0.000000 0.000000 1.367659 1.776163 4.539777 3.109434 -2.040732 3.379865 -23.437963 20.455395 -59.551818 -10.249028 -33.999555 5.417248 0.000000 0.000000 0.000000 -3.606970 3.356194 3.527718 31.986705 14.419759 11.140764 43.294851 12.265215 41.749149 179.847760 65.636356 -177.186391 0.000000 0.000000 0.000000 
52.963005 77.748039 -63.669785 -178.354599 -84.101526 178.289726 -1.614609 -8.838129 10.063802 3.882318 1.344624 -47.024732 7.436060 7.014974 31.299082 -3.303296 -6.958114 -2.086073 0.000000 0.000000 0.000000 2.231646 -11.324511 9.816638 4.152636 -4.211678 -27.825957 -1.569206 1.816173 36.518289 3.538332 5.845916 -13.340656 0.000000 0.000000 0.000000 3.204133 -6.113894 -1.500433 -1.673401 5.596723 -5.824813 -0.109626 -0.400806 7.810729 -0.009832 0.013291 -0.035346 -0.352380 0.860310 7.981330 -5.809549 0.032820 6.733367 0.000000 0.000000 0.000000 1.386607 1.789976 4.497660 3.805941 -2.243143 3.309512 -17.839257 19.293997 -58.618432 -11.195883 -37.846177 6.551081 0.000000 0.000000 0.000000 -3.631382 3.398488 3.607115 32.747680 14.690987 11.507597 43.063257 12.222680 40.806818 179.176380 65.461250 -177.615709 0.000000 0.000000 0.000000 
51.216396 77.483330 -64.378624 -179.368404 -84.745811 179.380971 -1.899061 -8.902301 10.301391 3.166464 1.540514 -47.877082 7.770678 7.583328 28.306491 -3.151256 -6.741670 -2.312286 0.000000 0.000000 0.000000 2.090477 -10.727745 10.460423 4.514058 -5.848862 -27.656872 -1.585272 1.645090 37.780290 3.516161 6.087877 -14.871258 0.000000 0.000000 0.000000 2.946379 -5.901749 -1.511764 -1.983816 5.347746 -6.249386 -0.156627 -0.396176 7.862458 -0.004582 -0.023202 0.025950 -0.316952 1.052631 8.041742 -6.142570 0.243218 6.922035 0.000000 0.000000 0.000000 1.407963 1.713893 4.531433 4.249762 -2.487010 3.060960 -13.767592 17.467191 -57.570633 -12.375165 -42.310676 8.045054 0.000000 0.000000 0.000000 -3.570094 3.282392 3.631169 33.231968 14.912041 11.772163 42.944302 12.450488 40.176303 178.369188 65.490777 -178.145281 0.000000 0.000000 0.000000 
49.103401 77.194115 -64.993759 -179.673467 -84.794135 -179.984091 -2.612371 -8.983680 10.483896 2.485550 2.570089 -48.167645 7.712697 8.181973 24.813644 -2.964951 -6.211242 -0.357086 0.000000 0.000000 0.000000 1.759385 -10.052928 11.272113 4.830861 -7.075407 -27.410569 -1.662786 1.015139 38.987997 4.082515 6.928291 -15.712097 0.000000 0.000000 0.000000 2.714646 -5.638912 -1.624505 -2.195067 5.110020 -6.839607 -0.211129 -0.392476 7.848541 0.022494 -0.037121 0.083578 -0.301302 1.041091 8.091801 -6.494215 0.543707 6.971334 0.000000 0.000000 0.000000 1.462644 1.649769 4.583381 4.303262 -2.542381 2.897624 -11.207532 15.455362 -56.410488 -13.559496 -46.891117 9.119835 0.000000 0.000000 0.000000 -3.626030 3.374132 3.550573 33.213817 15.079048 11.914672 43.159276 12.746582 40.077481 177.571982 65.488742 -178.625484 0.000000 0.000000 0.000000 
46.673752 76.937363 -65.470177 -176.291294 -84.454756 176.950831 -3.864746 -9.100349 10.552186 2.450043 4.332300 -48.309337 7.490998 8.643529 23.138476 -2.658328 -5.410255 0.917569 0.000000 0.000000 0.000000 1.880480 -9.804181 11.832951 4.507657 -7.770844 -27.043881 -2.023442 -0.018872 39.893260 5.450504 8.273007 -15.590409 0.000000 0.000000 0.000000 2.653405 -5.371078 -1.747899 -2.167224 4.938886 -7.461253 -0.148604 -0.397688 7.833195 -0.018439 -0.024621 0.164159 -0.305852 1.064120 8.212056 -6.695331 0.806104 6.854224 0.000000 0.000000 0.000000 1.501621 1.630785 4.704858 4.241952 -2.338274 2.973090 -10.556785 13.361447 -55.377377 -14.985280 -51.426202 10.662987 0.000000 0.000000 0.000000 -3.694412 3.302800 3.731246 32.630300 15.315967 12.009460 43.499057 12.956931 40.334487 177.117474 65.714671 -178.737622 0.000000 0.000000 0.000000 
43.980022 76.845825 -65.781822 -175.576187 -83.726173 176.319640 -4.936516 -9.140018 10.634435 2.514671 5.447404 -47.950725 7.554189 9.274799 22.778083 -2.242648 -4.538657 0.812470 0.000000 0.000000 0.000000 2.334440 -9.701757 12.190504 3.129333 -8.304031 -26.426572 -0.741826 1.463712 40.803834 5.903287 9.348173 -13.278533 0.000000 0.000000 0.000000 2.560778 -5.148726 -1.648227 -2.111057 4.844935 -8.045644 -0.174612 -0.420661 7.800520 0.002281 -0.006927 0.120265 -0.455484 1.003315 8.036571 -6.954998 1.346637 6.641594 0.000000 0.000000 0.000000 1.393584 1.585191 4.699426 3.912899 -1.935062 2.985402 -11.379941 11.422322 -53.800680 -16.002153 -55.211762 11.845145 0.000000 0.000000 0.000000 -3.872675 3.281651 3.616559 32.003111 15.579901 12.246784 43.464899 12.917401 40.843374 176.716952 65.889961 -178.809066 0.000000 0.000000 0.000000 
41.111183 76.860939 -66.035957 -177.266837 -83.097345 177.941646 -5.429128 -9.295222 10.891996 2.118617 5.456750 -47.064238 8.229300 9.656136 22.597225 -1.808396 -3.817732 0.354950 0.000000 0.000000 0.000000 2.439119 -9.829130 12.327926 1.243427 -8.242128 -25.829146 0.548027 3.062819 41.941279 8.003405 11.566622 -10.071780 0.000000 0.000000 0.000000 2.518605 -5.171035 -1.540729 -2.169543 4.870626 -8.561176 -0.284887 -0.436154 7.833424 0.036520 -0.013366 0.092568 -0.501376 1.052576 7.910050 -7.227249 1.899128 6.391016 0.000000 0.000000 0.000000 1.350675 1.527719 4.729323 3.210762 -1.436637 2.745371 -13.511878 9.537977 -52.637328 -17.398823 -58.562582 13.419180 0.000000 0.000000 0.000000 -3.952970 3.140115 3.524528 30.994640 15.742601 12.276494 43.574821 12.798619 41.004501 176.065461 66.048305 -179.160452 0.000000 0.000000 0.000000 
38.237213 76.937668 -66.227798 -176.104393 -82.405754 176.280653 -3.311905 -8.871044 11.363893 -1.055392 4.272030 -45.771017 10.248122 9.402777 22.455540 -1.117871 -3.123852 -0.636713 0.000000 0.000000 0.000000 2.703299 -10.006751 12.096429 -0.701091 -8.480922 -25.685251 1.198149 3.778454 43.499433 9.698834 12.589897 -7.672331 0.000000 0.000000 0.000000 2.930391 -5.481446 -1.249505 -2.088149 5.244825 -8.752374 -0.387092 -0.277843 7.953514 0.044142 -0.084523 0.122932 -0.627222 0.726912 7.785080 -7.350785 2.112878 6.259490 0.000000 0.000000 0.000000 1.211985 1.321683 4.551638 2.493649 -0.938021 2.636706 -16.529995 7.886707 -51.331477 -18.488740 -61.120071 14.670685 0.000000 0.000000 0.000000 -4.001725 3.024233 3.544055 29.755098 15.880902 12.144881 43.909391 12.811730 41.148003 176.589774 66.078966 -178.381482 0.000000 0.000000 0.000000 
35.524071 76.994621 -66.422821 -177.418344 -82.235293 177.262424 -2.318338 -8.866830 11.687053 -2.678367 3.342947 -44.918449 10.967510 9.993448 22.491051 -0.635354 -2.484460 -0.179539 0.000000 0.000000 0.000000 2.666488 -10.683168 12.006644 -2.709217 -9.548098 -25.956017 1.556814 4.018804 45.979003 10.669904 12.842176 -5.309923 0.000000 0.000000 0.000000 3.347395 -5.725414 -0.891998 -2.141255 5.246036 -8.989191 -0.610005 -0.415964 8.059819 -0.007564 -0.052545 0.042020 -0.800891 0.802660 7.496334 -7.349697 2.299780 5.993082 0.000000 0.000000 0.000000 0.975658 1.454171 4.416272 1.921093 -0.545146 2.445037 -19.800672 6.401366 -50.531549 -19.067434 -62.727658 15.358246 0.000000 0.000000 0.000000 -4.065524 3.045279 3.298275 28.667516 15.949661 11.903473 44.202495 13.345431 40.992214 176.379267 66.150355 -178.388094 0.000000 0.000000 0.000000 
33.043003 76.983299 -66.586899 -178.668296 -82.164539 178.331226 -1.668458 -8.796246 11.841743 -3.926485 2.863358 -44.409173 11.113455 10.141105 22.355221 -0.659741 -2.440244 0.547496 0.000000 0.000000 0.000000 2.559235 -11.560708 12.150708 -4.527577 -10.370543 -26.769200 1.442560 3.861840 49.411740 10.591433 12.512881 -4.238917 0.000000 0.000000 0.000000 3.854438 -5.830540 -0.671923 -2.366874 5.457259 -9.096629 -0.860842 -0.356631 8.117072 0.020348 -0.040425 0.004892 -0.758218 1.107616 7.368067 -7.193738 2.299072 5.760321 0.000000 0.000000 0.000000 0.911010 1.469884 4.339472 1.671310 -0.420245 2.111061 -22.754229 5.237098 -50.182739 -18.934857 -63.825973 15.294088 0.000000 0.000000 0.000000 -4.071700 2.949025 3.116313 27.275848 16.025511 11.573687 45.046614 14.283404 40.938709 176.549175 66.139310 -178.102551 0.000000 0.000000 0.000000 
30.845604 76.918236 -66.675507 177.818579 -82.227992 -177.954336 -1.153186 -8.666661 11.815607 -4.643962 2.125953 -43.766070 10.962678 9.028839 22.249824 -1.071877 -2.922978 0.634161 0.000000 0.000000 0.000000 2.226699 -11.550408 12.319920 -5.920658 -10.945405 -28.357585 0.962135 3.564830 54.277707 9.318862 11.666234 -6.290062 0.000000 0.000000 0.000000 4.021122 -5.702279 -0.714956 -2.717677 5.614640 -9.201615 -1.056428 -0.308057 8.073515 0.056280 -0.027565 0.053694 -0.842478 1.247348 7.242597 -7.106424 2.338212 5.357465 0.000000 0.000000 0.000000 0.807983 1.505541 4.286519 1.853004 -0.645140 1.947058 -24.815756 4.457155 -50.403296 -18.652325 -64.304660 14.969951 0.000000 0.000000 0.000000 -4.229336 2.940592 2.931940 26.102179 16.091280 11.214530 45.903140 15.409443 41.101251 176.723536 66.195994 -177.858836 0.000000 0.000000 0.000000 
